<svg id="svg" version="1.1" xmlns="http://www.w3.org/2000/svg" xmlns:xlink="http://www.w3.org/1999/xlink" width="400" height="400" viewBox="0, 0, 400,400"><g id="svgg"><path id="path0" d="M234.398 23.369 C 226.726 25.489,222.760 33.897,226.137 40.881 C 231.127 51.200,246.356 49.945,249.525 38.954 C 252.165 29.797,243.488 20.858,234.398 23.369 M310.311 30.481 C 305.527 33.255,307.047 40.385,312.647 41.435 C 320.543 42.917,324.348 33.657,317.326 30.049 C 315.823 29.276,311.981 29.513,310.311 30.481 M212.363 72.131 C 211.393 72.643,210.060 73.828,209.400 74.765 L 208.200 76.469 208.097 163.234 L 207.995 250.000 211.771 250.000 C 221.625 250.000,227.499 253.175,233.188 261.575 L 234.932 264.150 235.632 260.775 C 238.489 247.008,246.497 235.129,257.800 227.894 C 291.681 206.207,336.094 230.420,336.134 270.600 C 336.140 276.527,335.989 277.885,334.734 283.200 C 333.673 287.693,330.357 295.367,328.353 297.968 C 322.232 305.911,320.065 308.183,315.200 311.756 C 293.330 327.819,260.346 322.996,245.000 301.491 C 244.120 300.258,243.220 299.171,243.000 299.075 C 242.536 298.874,242.591 297.133,242.191 324.400 L 241.883 345.400 299.042 345.200 C 330.479 345.090,356.560 344.849,357.000 344.664 C 359.965 343.417,360.146 343.282,361.613 341.200 L 362.600 339.800 362.718 209.800 C 362.783 138.300,362.727 78.868,362.593 77.728 C 362.332 75.510,359.699 72.000,358.296 72.000 C 357.939 72.000,357.536 71.820,357.400 71.600 C 357.237 71.336,332.883 71.200,285.639 71.200 L 214.126 71.200 212.363 72.131 M290.430 94.988 C 302.464 96.686,309.861 99.815,318.012 106.653 C 349.012 132.663,338.765 182.415,300.000 194.102 C 260.349 206.056,224.196 168.371,237.447 128.898 C 244.869 106.788,268.206 91.852,290.430 94.988 M284.307 132.290 C 285.026 132.379,286.106 132.377,286.707 132.286 C 287.308 132.195,286.720 132.122,285.400 132.124 C 284.080 132.126,283.588 132.201,284.307 132.290 M298.501 146.200 C 298.505 147.080,298.587 147.393,298.683 146.895 C 298.779 146.398,298.775 145.678,298.675 145.295 C 298.575 144.913,298.496 145.320,298.501 146.200 M284.505 158.687 C 285.114 158.779,286.014 158.777,286.505 158.682 C 286.997 158.587,286.500 158.511,285.400 158.514 C 284.300 158.517,283.897 158.595,284.505 158.687 M298.501 271.400 C 298.505 272.280,298.587 272.593,298.683 272.095 C 298.779 271.598,298.775 270.878,298.675 270.495 C 298.575 270.113,298.496 270.520,298.501 271.400 M294.575 280.100 L 293.400 281.400 294.700 280.225 C 295.912 279.130,296.184 278.800,295.875 278.800 C 295.806 278.800,295.221 279.385,294.575 280.100 " stroke="none" fill="#8dd3fa" fill-rule="evenodd"></path><path id="path1" d="M279.150 30.576 C 274.066 34.030,276.508 41.140,282.904 41.505 C 290.079 41.916,292.989 33.400,286.772 30.186 C 284.886 29.210,280.856 29.416,279.150 30.576 M340.930 30.520 C 335.537 34.215,338.438 41.603,345.280 41.599 C 351.552 41.595,354.492 35.097,350.018 31.127 C 347.856 29.209,343.289 28.904,340.930 30.520 M24.400 250.000 C 24.400 250.220,23.691 250.400,22.824 250.400 C 21.957 250.400,21.136 250.580,21.000 250.800 C 20.864 251.020,20.403 251.200,19.976 251.200 C 19.549 251.200,19.200 251.380,19.200 251.600 C 19.200 251.820,18.840 252.000,18.400 252.000 C 17.960 252.000,17.600 252.180,17.600 252.400 C 17.600 252.620,17.341 252.800,17.025 252.800 C 16.255 252.800,9.200 259.830,9.200 260.597 C 9.200 260.929,9.020 261.200,8.800 261.200 C 8.580 261.200,8.400 261.560,8.400 262.000 C 8.400 262.440,8.239 262.800,8.042 262.800 C 7.608 262.800,5.200 267.694,5.200 268.575 C 5.200 268.919,5.020 269.200,4.800 269.200 C 4.580 269.200,4.400 269.549,4.400 269.976 C 4.400 270.403,4.220 270.864,4.000 271.000 C 3.780 271.136,3.600 271.676,3.600 272.200 C 3.600 272.724,3.420 273.264,3.200 273.400 C 2.980 273.536,2.800 274.166,2.800 274.800 C 2.800 275.434,2.620 276.064,2.400 276.200 C 2.180 276.336,2.000 277.056,2.000 277.800 C 2.000 278.544,1.820 279.264,1.600 279.400 C 1.380 279.536,1.200 280.432,1.200 281.390 C 1.200 282.414,0.997 283.201,0.708 283.297 C -0.401 283.667,0.134 311.936,1.354 317.400 C 1.452 317.840,1.748 319.280,2.013 320.600 C 5.426 337.649,13.729 349.085,24.200 351.160 C 25.927 351.503,32.824 351.603,48.800 351.518 L 71.000 351.400 71.528 349.000 C 74.865 333.842,91.201 328.017,102.194 338.064 C 105.440 341.030,108.000 345.906,108.000 349.121 C 108.000 352.136,107.377 352.000,121.134 352.000 C 134.737 352.000,134.400 352.066,134.400 349.414 C 134.400 344.112,139.123 337.636,145.121 334.717 C 155.086 329.866,168.741 336.888,170.561 347.800 C 170.707 348.680,170.926 349.895,171.045 350.500 L 171.264 351.600 193.932 351.594 C 215.079 351.588,216.808 351.535,219.699 350.807 C 228.639 348.554,235.261 339.950,239.563 325.000 C 241.444 318.461,242.396 309.699,242.388 299.000 C 242.385 294.415,241.640 286.047,240.982 283.200 C 240.855 282.650,240.570 281.390,240.350 280.400 C 237.196 266.229,230.573 255.798,222.400 252.130 C 218.929 250.572,219.424 250.596,193.627 250.729 C 170.412 250.849,168.553 250.910,167.227 251.587 C 165.997 252.214,156.843 261.458,156.465 262.454 C 156.391 262.649,155.221 263.589,153.865 264.543 C 148.918 268.022,149.400 267.972,121.200 267.972 C 89.686 267.972,92.502 268.645,82.800 258.789 C 75.002 250.867,74.894 250.800,69.848 250.800 C 67.012 250.800,65.906 250.649,65.457 250.200 C 64.727 249.470,24.400 249.274,24.400 250.000 M49.977 280.383 C 51.866 281.729,52.164 282.815,52.392 289.200 L 52.600 295.000 58.600 295.200 C 66.551 295.465,67.995 296.392,67.999 301.233 C 68.002 305.750,65.460 307.200,57.540 307.200 L 52.400 307.200 52.381 312.700 C 52.354 320.460,50.940 322.800,46.279 322.800 C 41.764 322.800,40.400 320.485,40.400 312.820 L 40.400 307.200 35.049 307.200 C 27.852 307.200,25.282 305.978,24.577 302.219 C 23.634 297.190,26.333 295.200,34.100 295.200 C 40.787 295.200,40.400 295.595,40.400 288.779 C 40.400 280.262,44.616 276.566,49.977 280.383 M194.720 280.962 C 197.494 282.405,197.782 283.139,198.000 289.331 C 198.254 296.544,197.738 296.000,204.332 296.000 L 209.818 296.000 211.299 297.221 C 214.558 299.907,214.000 305.131,210.273 306.823 C 208.916 307.439,207.644 307.584,203.543 307.591 C 197.548 307.602,198.000 307.111,198.000 313.607 C 198.000 318.539,197.785 319.636,196.542 321.037 C 194.040 323.860,189.029 323.247,187.105 319.884 C 186.797 319.344,186.522 316.821,186.400 313.400 L 186.200 307.800 180.600 307.586 C 173.125 307.300,171.200 306.112,171.200 301.786 C 171.200 297.185,173.026 296.000,180.113 296.000 C 186.689 296.000,186.300 296.392,186.467 289.599 C 186.660 281.762,189.847 278.427,194.720 280.962 " stroke="none" fill="#e37a82" fill-rule="evenodd"></path><path id="path2" d="M196.400 0.259 C 194.636 0.845,193.603 1.555,191.700 3.487 C 190.545 4.659,189.600 5.759,189.600 5.931 C 189.600 6.472,186.924 9.191,186.656 8.923 C 186.515 8.782,186.400 8.997,186.400 9.400 C 186.400 9.803,186.291 10.024,186.158 9.891 C 185.854 9.588,184.000 11.405,184.000 12.005 C 184.000 12.248,183.865 12.365,183.700 12.264 C 183.535 12.164,182.770 12.918,182.000 13.941 C 181.230 14.963,179.733 16.655,178.673 17.700 C 177.614 18.745,176.861 19.600,177.000 19.600 C 177.139 19.600,176.341 20.488,175.227 21.574 C 174.112 22.660,173.200 23.708,173.200 23.904 C 173.200 24.100,172.745 24.688,172.190 25.210 C 169.831 27.426,170.000 18.815,170.000 136.573 C 170.000 244.332,170.002 244.624,170.805 245.311 C 171.247 245.690,171.753 246.000,171.929 246.000 C 172.105 246.000,172.598 246.321,173.025 246.713 C 173.451 247.105,174.700 248.118,175.800 248.963 L 177.800 250.500 190.200 250.253 C 197.020 250.117,203.725 250.004,205.100 250.003 L 207.600 250.000 207.600 163.411 L 207.600 76.821 208.543 75.111 C 209.074 74.147,210.316 72.832,211.388 72.100 L 213.290 70.800 285.345 70.801 L 357.400 70.803 358.800 71.640 C 360.778 72.822,361.904 74.110,362.813 76.229 C 363.852 78.654,364.067 336.425,363.031 339.399 C 362.251 341.641,360.365 343.740,358.228 344.745 L 356.409 345.600 299.804 345.600 L 243.200 345.600 243.200 358.600 L 243.200 371.600 308.605 371.600 C 360.198 371.600,374.195 371.494,374.883 371.100 C 375.363 370.825,376.179 370.195,376.696 369.700 C 377.213 369.205,377.808 368.800,378.018 368.800 C 378.228 368.800,378.400 368.618,378.400 368.395 C 378.400 368.172,380.093 366.296,382.163 364.227 C 384.232 362.157,386.045 360.090,386.190 359.632 C 386.335 359.174,386.607 358.800,386.795 358.800 C 386.982 358.800,388.095 357.784,389.268 356.542 C 390.441 355.299,391.764 353.904,392.209 353.442 C 392.653 352.979,393.459 351.970,393.999 351.200 C 394.539 350.430,396.065 348.731,397.390 347.424 L 399.800 345.048 399.800 185.489 L 399.800 25.929 398.900 25.201 C 398.405 24.800,398.000 24.273,398.000 24.030 C 398.000 23.787,396.515 22.082,394.700 20.242 C 392.885 18.401,390.950 16.291,390.400 15.552 C 388.978 13.643,386.403 10.803,385.015 9.615 C 383.242 8.097,381.600 6.326,381.600 5.933 C 381.600 5.742,380.388 4.374,378.907 2.893 L 376.215 0.200 286.607 0.130 C 237.323 0.091,196.730 0.149,196.400 0.259 M241.536 23.177 C 248.324 25.658,251.887 32.526,249.927 39.354 C 249.183 41.948,245.765 46.400,244.519 46.400 C 244.233 46.400,244.000 46.559,244.000 46.753 C 244.000 48.045,237.381 49.090,234.400 48.269 C 222.816 45.076,220.963 28.547,231.667 23.889 C 232.400 23.570,233.450 23.116,234.000 22.881 C 235.615 22.191,239.227 22.333,241.536 23.177 M347.433 29.250 C 354.221 30.959,353.924 40.789,347.055 41.730 C 344.973 42.016,341.200 41.638,341.200 41.144 C 341.200 40.955,340.970 40.800,340.689 40.800 C 340.408 40.800,339.913 40.471,339.589 40.070 C 335.012 34.396,340.084 27.400,347.433 29.250 M286.034 29.603 C 290.777 30.920,291.961 37.196,288.070 40.403 C 285.031 42.908,278.308 41.717,276.884 38.421 C 275.292 34.736,277.302 29.995,280.671 29.489 C 282.813 29.168,284.604 29.206,286.034 29.603 M317.713 29.748 C 323.393 32.169,322.249 40.993,316.163 41.703 C 311.857 42.205,307.600 40.498,307.600 38.270 C 307.600 37.927,307.420 37.536,307.200 37.400 C 306.103 36.722,307.096 32.542,308.698 31.092 C 310.780 29.208,314.976 28.582,317.713 29.748 M281.400 95.264 C 276.881 95.699,272.281 96.628,269.800 97.607 C 269.360 97.780,267.920 98.328,266.600 98.825 C 255.687 102.931,241.750 115.714,243.211 120.278 C 246.686 131.132,260.095 143.727,269.949 145.391 L 271.600 145.670 271.600 144.254 C 271.600 142.892,271.791 142.257,273.115 139.215 C 273.447 138.453,274.678 136.870,275.850 135.698 L 277.981 133.567 277.352 131.283 C 274.711 121.690,277.488 108.576,284.259 98.668 C 286.577 95.277,286.769 94.769,285.700 94.858 C 285.315 94.891,283.380 95.073,281.400 95.264 M314.600 121.578 C 313.940 121.747,312.410 122.103,311.200 122.370 C 303.104 124.156,290.629 131.966,292.964 133.786 C 296.339 136.417,298.430 139.552,298.976 142.800 C 299.321 144.850,299.592 145.104,302.146 145.769 C 311.926 148.317,323.361 159.168,327.395 169.731 C 328.360 172.258,328.459 172.192,330.728 167.500 C 337.283 153.944,337.372 138.272,330.977 123.740 C 330.398 122.426,329.940 121.989,328.777 121.640 C 327.136 121.149,316.468 121.102,314.600 121.578 M291.200 158.075 C 290.650 158.308,289.570 158.648,288.800 158.831 C 288.030 159.014,286.890 159.286,286.267 159.435 C 285.643 159.584,284.428 159.502,283.567 159.253 C 282.705 159.004,281.272 158.589,280.382 158.330 L 278.764 157.860 276.482 160.069 C 269.462 166.865,255.356 171.404,245.631 169.996 C 241.887 169.455,241.600 169.484,241.600 170.400 C 241.600 170.840,241.736 171.200,241.902 171.200 C 242.069 171.200,242.429 171.706,242.703 172.325 C 242.976 172.944,243.520 173.799,243.911 174.225 C 244.302 174.651,245.066 175.630,245.608 176.400 C 247.985 179.773,253.931 185.221,258.181 187.921 C 260.600 189.457,265.634 192.000,266.255 192.000 C 266.555 192.000,266.800 192.180,266.800 192.400 C 266.800 192.620,267.162 192.800,267.605 192.800 C 268.048 192.800,268.723 192.958,269.105 193.151 C 270.233 193.720,272.596 194.400,273.448 194.400 C 273.884 194.400,274.411 194.563,274.620 194.763 C 274.829 194.963,275.990 195.237,277.200 195.372 C 283.879 196.119,283.442 196.134,284.404 195.134 C 288.473 190.906,292.517 181.712,293.792 173.789 C 294.737 167.915,294.597 164.757,293.147 159.300 C 292.657 157.451,292.662 157.455,291.200 158.075 M276.600 221.019 C 275.060 221.304,273.170 221.719,272.400 221.942 C 271.630 222.164,270.550 222.463,270.000 222.606 C 269.450 222.750,268.550 223.056,268.000 223.287 C 267.450 223.518,266.640 223.840,266.200 224.003 C 265.025 224.437,261.432 226.156,261.200 226.395 C 261.090 226.508,260.640 226.797,260.200 227.038 C 258.215 228.123,257.386 228.616,257.200 228.819 C 257.090 228.940,256.370 229.475,255.600 230.008 C 252.167 232.385,247.228 237.325,244.812 240.800 C 244.277 241.570,243.659 242.323,243.439 242.473 C 242.544 243.086,243.080 245.653,244.820 249.087 C 249.877 259.064,259.246 267.445,268.373 270.155 C 271.478 271.077,271.600 271.041,271.600 269.195 C 271.600 268.312,271.765 267.277,271.966 266.895 C 272.168 266.513,272.645 265.487,273.026 264.615 C 273.407 263.743,274.701 262.047,275.901 260.847 C 278.050 258.698,278.077 258.643,277.639 257.232 C 274.525 247.189,277.488 232.896,284.713 223.117 C 285.641 221.861,286.400 220.736,286.400 220.617 C 286.400 220.212,279.413 220.498,276.600 221.019 M315.600 246.564 C 306.227 248.197,299.012 251.506,294.100 256.423 C 292.091 258.433,292.078 258.499,293.500 259.422 C 294.963 260.373,297.200 262.825,297.200 263.478 C 297.200 263.765,297.380 264.000,297.600 264.000 C 297.820 264.000,298.000 264.349,298.000 264.776 C 298.000 265.203,298.180 265.664,298.400 265.800 C 298.620 265.936,298.800 266.429,298.800 266.895 C 298.800 269.159,299.639 270.259,301.758 270.779 C 311.502 273.169,325.213 286.055,327.409 294.884 C 327.991 297.222,328.585 296.936,330.306 293.492 C 337.272 279.550,337.502 263.773,330.956 248.892 C 329.829 246.330,322.936 245.285,315.600 246.564 M291.200 283.267 C 287.327 284.881,284.388 284.940,280.117 283.488 C 278.893 283.072,278.737 283.144,276.717 285.051 C 269.579 291.794,258.631 295.535,247.228 295.128 L 242.400 294.956 242.400 296.278 C 242.400 297.005,242.580 297.600,242.800 297.600 C 243.020 297.600,243.200 297.836,243.200 298.125 C 243.200 298.413,243.515 298.998,243.900 299.425 C 244.285 299.852,245.134 300.921,245.787 301.800 C 253.484 312.170,269.797 320.800,281.701 320.800 L 283.953 320.800 285.746 318.471 C 292.185 310.103,295.645 296.709,293.826 287.200 C 292.932 282.530,292.940 282.542,291.200 283.267 M83.557 334.525 C 79.641 336.165,77.712 337.599,75.476 340.528 C 74.128 342.293,73.670 343.141,72.456 346.119 C 71.500 348.464,71.970 355.562,73.249 358.095 C 73.442 358.477,73.600 358.984,73.600 359.223 C 73.600 359.462,73.870 359.927,74.199 360.257 C 75.061 361.118,75.391 362.802,74.864 363.646 C 74.496 364.235,74.523 364.328,75.006 364.142 C 75.333 364.017,75.600 364.127,75.600 364.386 C 75.600 365.523,80.828 369.200,82.446 369.200 C 82.861 369.200,83.200 369.380,83.200 369.600 C 83.200 369.820,83.704 370.000,84.320 370.000 C 84.936 370.000,85.633 370.193,85.870 370.430 C 86.628 371.188,96.400 370.377,96.400 369.556 C 96.400 369.360,96.816 369.200,97.325 369.200 C 97.833 369.200,98.636 368.840,99.108 368.400 C 99.580 367.960,100.157 367.600,100.391 367.600 C 101.942 367.600,107.761 359.957,108.299 357.214 C 108.873 354.281,108.858 352.417,108.252 351.552 C 107.893 351.041,107.600 349.949,107.600 349.126 C 107.600 338.909,93.511 330.353,83.557 334.525 M146.357 334.525 C 139.900 337.230,135.954 342.063,134.743 348.749 C 134.449 350.372,133.981 351.786,133.704 351.892 C 133.110 352.120,133.015 354.400,133.600 354.400 C 133.820 354.400,134.000 355.210,134.000 356.200 C 134.000 357.190,134.180 358.000,134.400 358.000 C 134.620 358.000,134.800 358.360,134.800 358.800 C 134.800 359.240,134.980 359.600,135.200 359.600 C 135.420 359.600,135.600 359.960,135.600 360.400 C 135.600 360.840,135.780 361.200,136.000 361.200 C 136.220 361.200,136.400 361.473,136.400 361.807 C 136.400 362.599,141.401 367.600,142.193 367.600 C 142.527 367.600,142.800 367.780,142.800 368.000 C 142.800 368.220,143.070 368.400,143.400 368.400 C 143.730 368.400,144.000 368.580,144.000 368.800 C 144.000 369.020,144.349 369.200,144.776 369.200 C 145.203 369.200,145.664 369.380,145.800 369.600 C 145.936 369.820,146.667 370.000,147.424 370.000 C 148.181 370.000,148.800 370.180,148.800 370.400 C 148.800 370.639,150.333 370.800,152.600 370.800 C 154.867 370.800,156.400 370.639,156.400 370.400 C 156.400 370.180,157.019 370.000,157.776 370.000 C 158.533 370.000,159.264 369.820,159.400 369.600 C 159.536 369.380,159.997 369.200,160.424 369.200 C 160.851 369.200,161.200 369.020,161.200 368.800 C 161.200 368.580,161.520 368.400,161.912 368.400 C 162.303 368.400,162.883 368.040,163.200 367.600 C 163.517 367.160,164.013 366.800,164.302 366.800 C 165.493 366.800,167.615 364.091,167.226 363.068 C 167.024 362.536,167.008 361.944,167.192 361.751 C 169.303 359.527,171.092 352.050,170.394 348.367 C 168.332 337.495,156.091 330.446,146.357 334.525 " stroke="none" fill="#6e78d2" fill-rule="evenodd"></path><path id="path3" d="M281.694 132.766 C 275.833 134.271,270.893 142.439,272.426 148.092 C 276.593 163.454,298.400 161.331,298.400 145.563 C 298.400 136.780,290.282 130.562,281.694 132.766 M113.600 231.188 C 113.600 231.384,112.025 231.638,110.100 231.754 C 104.689 232.080,102.000 232.440,102.000 232.837 C 102.000 233.037,101.190 233.200,100.200 233.200 C 99.210 233.200,98.400 233.380,98.400 233.600 C 98.400 233.820,97.579 234.000,96.576 234.000 C 95.463 234.000,94.849 234.156,95.000 234.400 C 95.144 234.633,94.745 234.800,94.047 234.800 C 93.387 234.800,92.736 234.980,92.600 235.200 C 92.464 235.420,91.834 235.600,91.200 235.600 C 90.566 235.600,89.936 235.780,89.800 236.000 C 89.664 236.220,89.203 236.400,88.776 236.400 C 88.349 236.400,88.000 236.580,88.000 236.800 C 88.000 237.020,87.460 237.200,86.800 237.200 C 86.140 237.200,85.600 237.380,85.600 237.600 C 85.600 237.820,85.341 238.000,85.024 238.000 C 84.707 238.000,83.407 238.540,82.135 239.200 C 80.863 239.860,79.502 240.400,79.111 240.400 C 78.720 240.400,78.400 240.580,78.400 240.800 C 78.400 241.020,78.152 241.200,77.849 241.200 C 77.546 241.200,77.076 241.468,76.804 241.796 C 76.532 242.123,76.164 242.302,75.987 242.192 C 75.810 242.082,75.393 242.264,75.061 242.596 C 74.729 242.928,74.189 243.200,73.862 243.200 C 73.535 243.200,73.207 243.335,73.133 243.500 C 72.945 243.924,70.505 245.600,70.076 245.600 C 69.879 245.600,69.194 246.095,68.552 246.700 C 67.911 247.305,66.894 248.055,66.293 248.368 C 63.545 249.795,65.098 250.800,70.053 250.800 C 74.864 250.800,75.053 250.919,82.800 258.789 C 92.502 268.645,89.686 267.972,121.200 267.972 C 149.400 267.972,148.918 268.022,153.865 264.543 C 155.221 263.589,156.391 262.649,156.465 262.454 C 156.853 261.432,166.013 252.206,167.284 251.557 C 168.433 250.971,169.629 250.800,172.584 250.800 C 177.172 250.800,177.180 250.774,173.397 248.000 C 171.747 246.790,170.281 245.441,170.140 245.002 C 169.847 244.090,168.759 243.178,168.302 243.461 C 168.133 243.565,167.886 243.369,167.754 243.025 C 167.622 242.681,167.355 242.400,167.160 242.400 C 166.509 242.400,163.600 241.016,163.600 240.706 C 163.600 240.538,163.240 240.400,162.800 240.400 C 162.360 240.400,162.000 240.220,162.000 240.000 C 162.000 239.780,161.735 239.600,161.412 239.600 C 161.089 239.600,160.183 239.240,159.400 238.800 C 158.617 238.360,157.611 238.000,157.164 238.000 C 156.718 238.000,156.464 237.820,156.600 237.600 C 156.740 237.374,156.412 237.200,155.847 237.200 C 155.297 237.200,154.736 237.020,154.600 236.800 C 154.464 236.580,154.003 236.400,153.576 236.400 C 153.149 236.400,152.800 236.220,152.800 236.000 C 152.800 235.780,152.271 235.600,151.624 235.600 C 150.977 235.600,150.336 235.420,150.200 235.200 C 150.064 234.980,149.333 234.800,148.576 234.800 C 147.819 234.800,147.200 234.620,147.200 234.400 C 147.200 234.180,146.480 234.000,145.600 234.000 C 144.720 234.000,144.000 233.838,144.000 233.640 C 144.000 233.442,143.145 233.168,142.100 233.031 C 136.749 232.328,135.435 232.111,135.800 231.991 C 136.020 231.919,134.490 231.698,132.400 231.501 C 126.963 230.987,113.600 230.765,113.600 231.188 M282.400 257.771 C 270.261 261.140,268.617 277.329,279.891 282.465 C 282.634 283.715,287.276 284.043,289.481 283.144 C 292.496 281.915,293.134 281.510,294.877 279.724 C 303.825 270.554,294.631 254.377,282.400 257.771 M43.608 279.878 C 40.869 281.299,40.400 282.601,40.400 288.779 C 40.400 295.595,40.787 295.200,34.100 295.200 C 26.333 295.200,23.634 297.190,24.577 302.219 C 25.282 305.978,27.852 307.200,35.049 307.200 L 40.400 307.200 40.400 312.820 C 40.400 320.485,41.764 322.800,46.279 322.800 C 50.940 322.800,52.354 320.460,52.381 312.700 L 52.400 307.200 57.540 307.200 C 65.460 307.200,68.002 305.750,67.999 301.233 C 67.995 296.392,66.551 295.465,58.600 295.200 L 52.600 295.000 52.392 289.200 C 52.278 286.010,51.976 282.926,51.720 282.347 C 50.572 279.744,46.346 278.457,43.608 279.878 M189.518 281.056 C 187.093 282.335,186.613 283.680,186.467 289.599 C 186.300 296.392,186.689 296.000,180.113 296.000 C 173.026 296.000,171.200 297.185,171.200 301.786 C 171.200 306.112,173.125 307.300,180.600 307.586 L 186.200 307.800 186.400 313.400 C 186.522 316.821,186.797 319.344,187.105 319.884 C 189.029 323.247,194.040 323.860,196.542 321.037 C 197.785 319.636,198.000 318.539,198.000 313.607 C 198.000 307.111,197.548 307.602,203.543 307.591 C 207.644 307.584,208.916 307.439,210.273 306.823 C 214.000 305.131,214.558 299.907,211.299 297.221 L 209.818 296.000 204.332 296.000 C 197.738 296.000,198.254 296.544,198.000 289.331 C 197.811 283.973,197.745 283.604,196.800 282.593 C 194.767 280.419,191.880 279.810,189.518 281.056 M0.043 344.800 C 0.008 379.075,0.122 384.619,0.855 384.166 C 1.045 384.049,1.200 384.514,1.200 385.200 C 1.200 385.930,1.366 386.345,1.600 386.200 C 1.827 386.060,2.000 386.396,2.000 386.976 C 2.000 387.539,2.180 388.000,2.400 388.000 C 2.620 388.000,2.800 388.270,2.800 388.600 C 2.800 388.930,2.941 389.200,3.114 389.200 C 3.286 389.200,3.727 389.707,4.093 390.327 C 5.140 392.098,9.610 396.400,10.405 396.400 C 10.622 396.400,10.800 396.580,10.800 396.800 C 10.800 397.020,11.070 397.200,11.400 397.200 C 11.730 397.200,12.000 397.380,12.000 397.600 C 12.000 397.820,12.349 398.000,12.776 398.000 C 13.203 398.000,13.664 398.180,13.800 398.400 C 13.936 398.620,14.382 398.800,14.790 398.800 C 15.199 398.800,15.603 399.010,15.689 399.266 C 15.795 399.584,17.882 399.791,22.277 399.917 C 29.072 400.113,34.160 399.782,33.780 399.168 C 33.655 398.965,34.013 398.800,34.576 398.800 C 35.139 398.800,35.600 398.620,35.600 398.400 C 35.600 398.180,35.960 398.000,36.400 398.000 C 36.840 398.000,37.200 397.854,37.200 397.675 C 37.200 397.496,37.822 397.105,38.582 396.807 C 39.342 396.509,39.871 396.115,39.758 395.932 C 39.645 395.750,39.771 395.600,40.037 395.600 C 40.303 395.600,41.456 394.655,42.600 393.500 C 43.744 392.345,45.367 390.860,46.207 390.200 C 47.047 389.540,48.097 388.595,48.540 388.100 C 48.982 387.605,49.467 387.200,49.616 387.200 C 49.766 387.200,51.963 385.175,54.499 382.700 C 59.628 377.695,64.000 373.636,64.000 373.880 C 64.000 373.967,65.251 372.770,66.781 371.220 C 68.310 369.669,69.652 368.400,69.764 368.400 C 70.369 368.400,74.800 363.720,74.800 363.081 C 74.800 362.664,74.449 361.831,74.021 361.229 C 72.832 359.560,71.711 356.425,71.393 353.885 L 71.108 351.600 48.454 351.586 C 30.783 351.575,25.300 351.452,23.526 351.028 C 13.367 348.599,5.339 337.243,2.014 320.600 C 1.750 319.280,1.369 317.445,1.167 316.523 C 0.965 315.600,0.782 314.070,0.760 313.123 C 0.738 312.175,0.576 310.950,0.400 310.400 C 0.224 309.850,0.063 325.330,0.043 344.800 M241.697 316.276 C 241.644 317.638,241.420 318.864,241.200 319.000 C 240.980 319.136,240.800 319.946,240.800 320.800 C 240.800 321.654,240.620 322.464,240.400 322.600 C 240.180 322.736,240.000 323.278,240.000 323.805 C 240.000 324.331,239.843 325.176,239.651 325.681 C 239.459 326.187,239.087 327.320,238.825 328.200 C 238.562 329.080,238.200 330.160,238.020 330.600 C 237.841 331.040,237.193 332.660,236.581 334.200 C 235.969 335.740,234.958 337.774,234.334 338.720 C 233.710 339.666,233.200 340.528,233.200 340.635 C 233.200 341.224,228.894 346.068,227.285 347.290 C 221.866 351.403,222.758 351.288,194.700 351.471 L 171.200 351.624 171.195 352.712 C 171.188 354.417,170.180 357.784,168.863 360.508 C 167.574 363.173,167.394 364.400,168.290 364.400 C 168.597 364.400,168.736 364.580,168.600 364.800 C 168.464 365.020,168.521 365.200,168.726 365.200 C 169.232 365.200,170.979 366.740,175.190 370.900 C 177.139 372.825,178.851 374.400,178.995 374.400 C 179.462 374.400,180.370 375.497,180.114 375.752 C 179.886 375.981,180.598 376.158,181.300 376.047 C 181.465 376.021,181.600 376.249,181.600 376.554 C 181.600 376.859,182.073 377.418,182.651 377.797 C 183.229 378.175,185.467 380.249,187.623 382.404 C 189.780 384.559,191.647 386.220,191.772 386.094 C 191.898 385.969,192.000 386.167,192.000 386.533 C 192.000 386.900,192.163 387.200,192.361 387.200 C 192.725 387.200,194.291 388.581,198.933 393.000 C 200.320 394.320,201.701 395.456,202.002 395.525 C 202.303 395.594,202.852 395.999,203.222 396.425 C 203.591 396.851,204.188 397.200,204.547 397.200 C 204.906 397.200,205.200 397.380,205.200 397.600 C 205.200 397.820,205.560 398.000,206.000 398.000 C 206.440 398.000,206.800 398.180,206.800 398.400 C 206.800 398.620,207.124 398.800,207.520 398.800 C 207.916 398.800,208.465 399.025,208.740 399.300 C 210.041 400.603,228.400 399.681,228.400 398.313 C 228.400 398.141,228.760 398.000,229.200 398.000 C 229.640 398.000,230.000 397.820,230.000 397.600 C 230.000 397.380,230.225 397.200,230.500 397.200 C 230.775 397.199,231.523 396.749,232.162 396.200 C 232.801 395.650,233.472 395.200,233.652 395.200 C 234.401 395.200,238.429 390.692,239.670 388.464 C 240.118 387.659,240.623 386.820,240.791 386.600 C 240.960 386.380,241.046 385.885,240.984 385.500 C 240.922 385.115,241.035 384.800,241.235 384.800 C 241.436 384.800,241.600 384.260,241.600 383.600 C 241.600 382.940,241.780 382.400,242.000 382.400 C 242.220 382.400,242.400 381.511,242.400 380.424 C 242.400 379.337,242.580 378.336,242.800 378.200 C 243.477 377.781,243.303 371.697,242.603 371.305 C 242.083 371.015,241.992 367.248,241.900 342.386 C 241.842 326.664,241.751 314.914,241.697 316.276 " stroke="none" fill="#d7e4f4" fill-rule="evenodd"></path><path id="path4" d="M234.000 22.881 C 233.450 23.116,232.400 23.570,231.667 23.889 C 218.039 29.819,226.162 52.459,240.400 48.230 C 243.580 47.286,244.000 47.113,244.000 46.753 C 244.000 46.559,244.233 46.400,244.519 46.400 C 245.765 46.400,249.183 41.948,249.927 39.354 C 252.688 29.736,242.534 19.235,234.000 22.881 M240.218 23.347 C 254.210 27.073,252.699 46.851,238.343 47.906 C 226.595 48.770,220.285 34.476,228.906 26.529 C 232.468 23.246,236.053 22.238,240.218 23.347 M343.200 29.200 C 342.511 29.421,343.132 29.520,345.200 29.520 C 347.268 29.520,347.889 29.421,347.200 29.200 C 346.650 29.024,345.750 28.880,345.200 28.880 C 344.650 28.880,343.750 29.024,343.200 29.200 M282.505 29.487 C 283.114 29.579,284.014 29.577,284.505 29.482 C 284.997 29.387,284.500 29.311,283.400 29.314 C 282.300 29.317,281.897 29.395,282.505 29.487 M310.601 29.830 C 307.602 31.394,305.403 36.289,307.200 37.400 C 307.420 37.536,307.600 37.927,307.600 38.270 C 307.600 39.248,310.418 41.601,311.578 41.591 C 312.470 41.584,312.396 41.489,311.000 40.848 C 304.666 37.939,306.978 29.606,314.120 29.601 C 317.367 29.599,319.721 31.019,320.751 33.600 C 321.124 34.536,321.151 34.544,321.175 33.731 C 321.271 30.415,314.365 27.868,310.601 29.830 M278.000 31.200 C 277.120 32.080,276.404 33.115,276.409 33.500 C 276.415 33.920,276.680 33.669,277.073 32.871 C 277.433 32.140,278.371 31.105,279.157 30.571 C 279.943 30.037,280.364 29.600,280.093 29.600 C 279.822 29.600,278.880 30.320,278.000 31.200 M287.035 30.356 C 287.715 30.771,288.660 31.604,289.135 32.209 C 289.611 32.813,289.994 33.149,289.987 32.954 C 289.958 32.135,287.128 29.599,286.246 29.601 C 286.001 29.602,286.356 29.942,287.035 30.356 M339.600 31.200 C 338.353 32.447,338.009 33.087,338.041 34.100 L 338.082 35.400 338.372 34.200 C 338.667 32.982,339.625 31.207,339.996 31.191 C 340.479 31.170,342.152 29.617,341.700 29.609 C 341.425 29.604,340.480 30.320,339.600 31.200 M349.987 31.100 C 352.553 33.378,352.775 36.874,350.532 39.669 L 349.464 41.000 350.762 39.763 C 353.530 37.123,352.010 29.600,348.709 29.600 C 348.482 29.600,349.057 30.275,349.987 31.100 M290.051 35.600 C 290.051 37.070,290.117 37.235,290.412 36.500 C 290.628 35.963,290.628 35.237,290.412 34.700 C 290.117 33.965,290.051 34.130,290.051 35.600 M338.054 36.705 C 337.980 37.938,339.695 40.800,340.508 40.800 C 340.689 40.800,340.303 40.125,339.649 39.300 C 338.996 38.475,338.382 37.350,338.285 36.800 C 338.122 35.872,338.105 35.865,338.054 36.705 M320.612 37.544 C 320.306 38.941,318.524 40.716,316.958 41.185 L 315.800 41.531 316.900 41.566 C 318.339 41.611,321.200 38.839,321.200 37.400 C 321.200 36.065,320.922 36.133,320.612 37.544 M289.000 38.908 C 288.560 39.577,287.573 40.456,286.806 40.862 C 286.040 41.268,285.663 41.600,285.968 41.600 C 286.723 41.600,289.087 39.758,289.627 38.749 C 290.319 37.456,289.882 37.567,289.000 38.908 M277.213 39.100 C 277.219 39.265,277.714 39.746,278.313 40.168 L 279.400 40.936 278.430 39.868 C 277.411 38.746,277.192 38.607,277.213 39.100 M344.500 41.876 C 344.885 41.976,345.515 41.976,345.900 41.876 C 346.285 41.775,345.970 41.693,345.200 41.693 C 344.430 41.693,344.115 41.775,344.500 41.876 M211.388 72.100 C 210.316 72.832,209.074 74.147,208.543 75.111 L 207.600 76.821 207.600 163.401 L 207.600 249.980 201.300 250.101 C 196.498 250.193,197.340 250.243,204.844 250.311 C 210.258 250.360,215.568 250.484,216.644 250.586 C 218.174 250.732,218.339 250.699,217.400 250.434 C 216.740 250.247,214.355 250.073,212.100 250.047 L 208.000 250.000 208.000 163.663 L 208.000 77.326 208.931 75.563 C 209.443 74.593,210.628 73.260,211.565 72.600 L 213.269 71.400 285.111 71.297 C 332.996 71.228,357.088 71.328,357.357 71.597 C 357.579 71.819,358.026 72.000,358.352 72.000 C 359.708 72.000,362.337 75.551,362.593 77.728 C 362.727 78.868,362.783 138.300,362.718 209.800 L 362.600 339.800 361.613 341.200 C 360.146 343.282,359.965 343.417,357.000 344.664 C 356.560 344.849,330.550 345.090,299.200 345.200 L 242.200 345.400 242.200 358.167 C 242.200 368.024,242.314 370.971,242.700 371.100 C 243.093 371.231,243.200 368.522,243.200 358.433 L 243.200 345.600 299.804 345.600 L 356.409 345.600 358.228 344.745 C 360.365 343.740,362.251 341.641,363.031 339.399 C 364.067 336.425,363.852 78.654,362.813 76.229 C 361.904 74.110,360.778 72.822,358.800 71.640 L 357.400 70.803 285.345 70.801 L 213.290 70.800 211.388 72.100 M279.200 94.999 C 247.385 99.663,228.347 128.795,236.723 160.000 C 240.831 175.306,253.771 188.657,269.523 193.843 C 273.802 195.251,275.021 195.481,274.600 194.800 C 274.464 194.580,273.971 194.400,273.505 194.400 C 272.604 194.400,270.261 193.735,269.105 193.151 C 268.723 192.958,268.048 192.800,267.605 192.800 C 267.162 192.800,266.800 192.620,266.800 192.400 C 266.800 192.180,266.555 192.000,266.255 192.000 C 265.634 192.000,260.600 189.457,258.181 187.921 C 253.931 185.221,247.985 179.773,245.608 176.400 C 245.066 175.630,244.302 174.651,243.911 174.225 C 243.520 173.799,242.976 172.944,242.703 172.325 C 242.429 171.706,242.069 171.200,241.902 171.200 C 241.736 171.200,241.600 170.840,241.600 170.400 C 241.600 169.484,241.887 169.455,245.631 169.996 C 255.356 171.404,269.462 166.865,276.482 160.069 L 278.764 157.860 280.482 158.357 C 281.427 158.631,282.753 159.022,283.428 159.227 C 285.426 159.833,285.734 159.789,290.763 158.162 C 292.865 157.482,292.620 157.292,293.414 160.217 C 295.877 169.283,293.152 182.400,286.854 191.800 C 284.428 195.420,284.145 195.696,282.511 196.044 C 279.880 196.604,291.626 195.986,294.800 195.398 C 309.966 192.587,324.006 182.116,330.732 168.600 C 344.741 140.449,331.060 107.349,301.230 97.225 C 294.399 94.906,285.775 94.035,279.200 94.999 M286.400 95.168 C 286.400 95.371,285.437 96.946,284.259 98.668 C 277.488 108.576,274.711 121.690,277.352 131.283 L 277.981 133.567 275.850 135.698 C 274.678 136.870,273.447 138.453,273.115 139.215 C 271.791 142.257,271.600 142.892,271.600 144.254 L 271.600 145.670 269.949 145.391 C 260.095 143.727,246.686 131.132,243.211 120.278 C 241.750 115.714,255.687 102.931,266.600 98.825 C 267.920 98.328,269.360 97.780,269.800 97.607 C 272.955 96.363,277.887 95.510,285.700 94.858 C 286.085 94.826,286.400 94.966,286.400 95.168 M328.777 121.640 C 329.940 121.989,330.398 122.426,330.977 123.740 C 337.372 138.272,337.283 153.944,330.728 167.500 C 328.459 172.192,328.360 172.258,327.395 169.731 C 323.361 159.168,311.926 148.317,302.146 145.769 C 299.592 145.104,299.321 144.850,298.976 142.800 C 298.430 139.552,296.339 136.417,292.964 133.786 C 290.629 131.966,303.104 124.156,311.200 122.370 C 312.410 122.103,313.940 121.747,314.600 121.578 C 316.468 121.102,327.136 121.149,328.777 121.640 M288.943 132.598 C 303.487 137.011,300.898 158.400,285.800 158.565 C 271.823 158.718,267.059 142.666,278.515 134.017 C 280.858 132.248,285.643 131.597,288.943 132.598 M276.200 195.600 C 278.063 196.074,279.933 196.074,279.200 195.600 C 278.870 195.387,277.790 195.231,276.800 195.253 C 275.158 195.291,275.106 195.322,276.200 195.600 M278.400 220.198 C 274.944 220.704,269.305 222.144,268.850 222.638 C 268.582 222.929,269.641 222.728,272.200 222.001 C 276.494 220.782,286.400 219.816,286.400 220.617 C 286.400 220.736,285.641 221.861,284.713 223.117 C 277.488 232.896,274.525 247.189,277.639 257.232 C 278.077 258.643,278.050 258.698,275.901 260.847 C 274.701 262.047,273.407 263.743,273.026 264.615 C 272.645 265.487,272.168 266.513,271.966 266.895 C 271.765 267.277,271.600 268.312,271.600 269.195 C 271.600 271.041,271.478 271.077,268.373 270.155 C 259.246 267.445,249.877 259.064,244.820 249.087 C 243.080 245.653,242.544 243.086,243.439 242.473 C 243.659 242.323,244.277 241.570,244.812 240.800 C 247.228 237.325,252.167 232.385,255.600 230.008 C 256.370 229.475,257.090 228.940,257.200 228.819 C 257.310 228.699,257.760 228.403,258.200 228.162 C 260.128 227.108,261.014 226.586,261.200 226.395 C 261.576 226.008,265.686 224.137,267.800 223.390 C 268.258 223.228,268.398 223.031,268.127 222.929 C 267.474 222.684,262.037 225.245,258.405 227.508 C 246.739 234.777,238.542 246.751,235.632 260.775 L 234.932 264.150 233.251 261.675 C 232.327 260.314,231.480 259.200,231.370 259.200 C 231.260 259.200,231.867 260.235,232.719 261.500 C 237.565 268.697,240.682 278.454,242.031 290.658 L 242.480 294.716 243.690 294.958 C 253.557 296.931,269.059 292.285,276.705 285.063 C 278.779 283.104,278.831 283.082,280.305 283.531 C 285.091 284.992,286.664 284.967,290.908 283.368 C 292.772 282.666,292.660 282.659,292.983 283.500 C 296.444 292.519,293.034 308.999,285.746 318.471 L 283.953 320.800 281.701 320.800 C 269.797 320.800,253.484 312.170,245.787 301.800 C 245.134 300.921,244.285 299.852,243.900 299.425 C 243.515 298.998,243.200 298.413,243.200 298.125 C 243.200 297.836,243.043 297.600,242.851 297.600 C 242.658 297.600,242.510 298.905,242.520 300.500 C 242.535 302.799,242.570 302.965,242.690 301.300 C 242.878 298.694,243.020 298.705,245.000 301.486 C 260.309 322.988,293.330 327.819,315.200 311.756 C 320.065 308.183,322.232 305.911,328.353 297.968 C 330.357 295.367,333.673 287.693,334.734 283.200 C 335.989 277.885,336.140 276.527,336.134 270.600 C 336.104 239.881,308.513 215.794,278.400 220.198 M170.557 245.552 C 170.948 245.985,172.018 246.844,172.934 247.461 C 173.850 248.078,175.097 249.081,175.703 249.691 L 176.807 250.800 185.580 250.800 C 190.405 250.800,194.436 250.665,194.539 250.500 C 194.641 250.335,190.942 250.256,186.320 250.325 L 177.915 250.450 176.457 249.432 C 175.656 248.872,174.370 247.871,173.600 247.208 C 172.830 246.545,171.975 246.001,171.700 246.001 C 171.425 246.000,171.200 245.839,171.200 245.643 C 171.200 245.446,170.895 245.169,170.522 245.026 C 169.910 244.791,169.914 244.842,170.557 245.552 M328.802 246.774 C 329.907 247.097,330.364 247.546,330.956 248.892 C 337.502 263.773,337.272 279.550,330.306 293.492 C 328.585 296.936,327.991 297.222,327.409 294.884 C 325.213 286.055,311.502 273.169,301.758 270.779 C 299.639 270.259,298.800 269.159,298.800 266.895 C 298.800 266.429,298.620 265.936,298.400 265.800 C 298.180 265.664,298.000 265.203,298.000 264.776 C 298.000 264.349,297.820 264.000,297.600 264.000 C 297.380 264.000,297.200 263.765,297.200 263.478 C 297.200 262.825,294.963 260.373,293.500 259.422 C 292.078 258.499,292.091 258.433,294.100 256.423 C 301.724 248.792,319.130 243.952,328.802 246.774 M222.203 252.005 C 222.337 252.222,222.629 252.400,222.852 252.400 C 223.535 252.400,226.883 254.803,229.200 256.956 L 231.400 259.000 229.400 256.863 C 227.047 254.349,221.221 250.416,222.203 252.005 M290.887 258.527 C 301.058 263.503,301.299 277.676,291.294 282.451 C 285.333 285.296,278.038 283.488,274.453 278.277 C 266.910 267.314,279.044 252.733,290.887 258.527 M242.076 309.200 C 242.028 310.850,241.889 312.650,241.767 313.200 C 241.579 314.047,241.613 314.094,241.989 313.506 C 242.254 313.092,242.378 311.481,242.298 309.506 L 242.163 306.200 242.076 309.200 M241.254 317.267 C 241.225 317.634,241.084 318.264,240.941 318.667 C 240.741 319.233,240.795 319.296,241.175 318.946 C 241.446 318.697,241.587 318.067,241.488 317.546 C 241.390 317.026,241.284 316.900,241.254 317.267 M88.311 333.493 C 89.251 333.578,90.691 333.577,91.511 333.491 C 92.330 333.405,91.560 333.336,89.800 333.337 C 88.040 333.339,87.370 333.409,88.311 333.493 M151.111 333.493 C 152.051 333.578,153.491 333.577,154.311 333.491 C 155.130 333.405,154.360 333.336,152.600 333.337 C 150.840 333.339,150.170 333.409,151.111 333.493 M81.500 335.029 C 79.949 335.870,80.125 336.161,81.700 335.359 C 83.208 334.593,83.475 334.394,82.967 334.416 C 82.765 334.425,82.105 334.701,81.500 335.029 M96.433 334.549 C 96.845 334.917,99.200 336.000,99.200 335.821 C 99.200 335.590,96.982 334.400,96.553 334.400 C 96.396 334.400,96.342 334.467,96.433 334.549 M144.300 335.029 C 142.749 335.870,142.925 336.161,144.500 335.359 C 146.008 334.593,146.275 334.394,145.767 334.416 C 145.565 334.425,144.905 334.701,144.300 335.029 M234.638 337.600 C 234.063 338.700,233.666 339.600,233.757 339.600 C 233.960 339.600,235.351 337.251,235.710 336.300 C 236.218 334.958,235.676 335.614,234.638 337.600 M102.617 338.800 C 103.712 340.010,104.928 341.450,105.321 342.000 C 106.010 342.965,106.010 342.954,105.331 341.700 C 104.944 340.985,103.728 339.545,102.627 338.500 L 100.627 336.600 102.617 338.800 M139.400 338.800 C 138.317 339.900,137.603 340.782,137.815 340.759 C 138.191 340.720,141.880 336.800,141.541 336.800 C 141.447 336.800,140.483 337.700,139.400 338.800 M165.183 338.500 C 166.841 340.266,167.200 340.584,167.200 340.283 C 167.200 340.219,166.345 339.364,165.300 338.383 L 163.400 336.600 165.183 338.500 M75.723 339.700 C 74.941 340.561,73.190 343.215,73.677 342.800 C 74.060 342.474,76.806 338.800,76.667 338.800 C 76.597 338.800,76.172 339.205,75.723 339.700 M231.600 342.328 C 230.830 343.347,229.300 345.065,228.200 346.148 C 226.610 347.712,226.509 347.878,227.705 346.958 C 229.166 345.834,233.410 340.872,233.136 340.608 C 233.061 340.536,232.370 341.310,231.600 342.328 M168.341 342.777 C 168.918 343.858,169.450 344.684,169.523 344.611 C 169.714 344.420,168.081 341.297,167.652 341.032 C 167.454 340.910,167.764 341.695,168.341 342.777 M136.600 342.400 C 136.259 343.060,136.069 343.600,136.179 343.600 C 136.289 343.600,136.659 343.060,137.000 342.400 C 137.341 341.740,137.531 341.200,137.421 341.200 C 137.311 341.200,136.941 341.740,136.600 342.400 M106.014 343.254 C 106.006 343.394,106.263 344.114,106.584 344.854 C 106.906 345.594,107.169 345.930,107.170 345.600 C 107.172 345.024,106.043 342.734,106.014 343.254 M107.362 346.933 C 107.493 347.336,107.600 348.336,107.600 349.156 C 107.600 349.976,107.880 350.996,108.222 351.424 C 108.823 352.174,108.830 352.170,108.422 351.326 C 108.190 350.846,107.997 349.766,107.994 348.926 C 107.991 348.087,107.794 347.130,107.556 346.800 C 107.197 346.301,107.165 346.323,107.362 346.933 M134.649 347.015 C 134.512 347.373,134.416 348.056,134.436 348.533 C 134.462 349.147,134.585 349.008,134.859 348.056 C 135.257 346.672,135.094 345.858,134.649 347.015 M71.400 349.600 C 70.909 351.809,71.760 356.386,73.222 359.400 C 73.756 360.500,74.409 361.940,74.674 362.600 C 75.081 363.616,75.158 363.665,75.177 362.919 C 75.204 361.868,74.410 360.000,73.936 360.000 C 73.751 360.000,73.600 359.651,73.600 359.224 C 73.600 358.797,73.441 358.349,73.246 358.229 C 72.720 357.903,72.353 355.851,72.061 351.600 C 71.806 347.888,71.791 347.842,71.400 349.600 M170.470 352.087 C 170.212 353.114,170.000 354.406,170.000 354.958 C 170.000 356.260,168.802 359.333,167.567 361.200 C 167.131 361.860,167.014 362.472,167.225 363.000 C 167.464 363.599,167.551 363.638,167.572 363.154 C 167.587 362.798,168.212 361.268,168.960 359.754 C 170.260 357.121,171.510 351.931,171.123 350.770 C 171.023 350.468,170.729 351.061,170.470 352.087 " stroke="none" fill="#8c93db" fill-rule="evenodd"></path></g></svg>