<?xml version="1.0" standalone="no"?>
<!DOCTYPE svg PUBLIC "-//W3C//DTD SVG 20010904//EN"
 "http://www.w3.org/TR/2001/REC-SVG-20010904/DTD/svg10.dtd">
<svg version="1.0" xmlns="http://www.w3.org/2000/svg"
 width="452.000000pt" height="452.000000pt" viewBox="0 0 452.000000 452.000000"
 preserveAspectRatio="xMidYMid meet">

<g transform="translate(0.000000,452.000000) scale(0.100000,-0.100000)"
fill="#000000" stroke="none">
<path d="M1904 4302 c-71 -43 -171 -104 -221 -136 l-93 -57 15 -29 c8 -16 15
-31 15 -34 0 -3 -32 -24 -71 -47 l-71 -42 -22 28 -23 28 -94 -58 c-183 -113
-235 -163 -278 -272 -12 -31 -44 -209 -82 -457 l-63 -406 148 -472 c81 -260
147 -476 146 -479 0 -3 -37 -44 -83 -90 -45 -46 -88 -98 -95 -115 -12 -27 -32
-38 -230 -119 -209 -86 -219 -91 -278 -150 -102 -101 -99 -79 -99 -693 l0
-524 24 -19 c23 -19 66 -19 1811 -19 1745 0 1788 0 1811 19 l24 19 0 524 c0
590 1 585 -76 672 -56 63 -81 79 -204 131 l-106 44 -11 -29 c-5 -17 -15 -30
-21 -30 -6 0 -42 12 -79 26 -67 27 -68 27 -83 79 -18 62 -87 158 -156 218 -27
23 -49 47 -49 52 -1 6 65 223 146 483 l148 472 -63 406 c-38 248 -70 426 -82
458 -27 67 -89 148 -142 184 -56 39 -763 474 -804 495 -27 14 -67 17 -256 17
l-225 0 -128 -78z m461 -974 l105 -53 0 -117 0 -118 70 0 70 0 0 80 c0 44 2
80 5 80 3 0 50 -23 105 -50 l100 -50 0 -190 c0 -105 -3 -190 -7 -190 -4 0
-130 41 -280 90 l-273 91 -273 -91 c-150 -49 -276 -90 -280 -90 -4 0 -7 85 -7
190 l0 190 100 50 c55 27 102 50 105 50 3 0 5 -36 5 -80 l0 -80 70 0 70 0 0
118 0 117 103 52 c56 29 103 52 104 52 2 1 50 -23 108 -51z m-815 -403 l0 -95
-69 0 c-59 0 -74 4 -99 25 -57 48 -51 60 56 115 54 27 100 49 105 49 4 1 7
-42 7 -94z m1529 45 c110 -55 116 -67 59 -115 -25 -21 -40 -25 -99 -25 l-69 0
0 95 c0 52 2 95 5 95 3 0 50 -22 104 -50z m-545 -310 c148 -49 270 -91 273
-93 4 -4 -375 -331 -416 -359 -21 -14 -48 -18 -131 -18 -83 0 -110 4 -131 18
-55 36 -423 356 -414 359 173 60 533 182 540 182 6 1 131 -39 279 -89z m-567
-506 c114 -97 131 -104 293 -104 162 0 182 7 294 105 42 37 79 65 81 63 8 -7
85 -517 85 -558 0 -48 -30 -86 -78 -100 -49 -13 -715 -13 -764 0 -48 14 -78
52 -78 100 0 21 18 153 40 295 22 142 40 259 40 261 0 10 14 0 87 -62z"/>
</g>
</svg>
